<?xml version="1.0" encoding="utf-8"?>
<!-- Generator: Adobe Illustrator 21.0.0, SVG Export Plug-In . SVG Version: 6.00 Build 0)  -->
<svg version="1.1"
	 id="Layer_1" xmlns:cc="http://creativecommons.org/ns#" xmlns:dc="http://purl.org/dc/elements/1.1/" xmlns:rdf="http://www.w3.org/1999/02/22-rdf-syntax-ns#"
	 xmlns="http://www.w3.org/2000/svg" xmlns:xlink="http://www.w3.org/1999/xlink" x="0px" y="0px" viewBox="0 0 16 16"
	 style="enable-background:new 0 0 16 16;" xml:space="preserve">
<style type="text/css">
	.st0{fill:#FFFFFF;}
</style>
<g transform="matrix(.67042 -.67042 .67042 .67042 .62542 93.143)">
	<path class="st0" d="M69.5-61.5c-1.9,0-3.5,1.6-3.5,3.5c0,0.2,0,0.3,0,0.5h2.1C68-57.7,68-57.8,68-58c0-0.8,0.7-1.5,1.5-1.5h5
		c0.8,0,1.5,0.7,1.5,1.5s-0.7,1.5-1.5,1.5h-1.7c-0.3,0.8-0.8,1.5-1.4,2h3.1c1.9,0,3.5-1.6,3.5-3.5s-1.6-3.5-3.5-3.5H69.5L69.5-61.5z
		"/>
	<path class="st0" d="M68.5-54.5c1.9,0,3.5-1.6,3.5-3.5c0-0.2,0-0.3,0-0.5h-2.1C70-58.3,70-58.2,70-58c0,0.8-0.7,1.5-1.5,1.5h-5
		c-0.8,0-1.5-0.7-1.5-1.5s0.7-1.5,1.5-1.5h1.7c0.3-0.8,0.8-1.5,1.4-2h-3.1c-1.9,0-3.5,1.6-3.5,3.5s1.6,3.5,3.5,3.5H68.5L68.5-54.5z"
		/>
</g>
</svg>
