<?xml version="1.0" encoding="utf-8"?>
<!-- Generator: Adobe Illustrator 21.0.0, SVG Export Plug-In . SVG Version: 6.00 Build 0)  -->
<svg version="1.1"
	 id="Layer_1" xmlns:cc="http://creativecommons.org/ns#" xmlns:dc="http://purl.org/dc/elements/1.1/" xmlns:rdf="http://www.w3.org/1999/02/22-rdf-syntax-ns#"
	 xmlns="http://www.w3.org/2000/svg" xmlns:xlink="http://www.w3.org/1999/xlink" x="0px" y="0px" viewBox="0 0 16 16"
	 style="enable-background:new 0 0 16 16;" xml:space="preserve">
<style type="text/css">
	.st0{fill:#FFFDFD;}
</style>
<g transform="translate(0 -1036.4)">
	<path class="st0" d="M12.2,1037.4c-1.4,0-2.5,1.1-2.5,2.5c0,0.1,0,0.2,0,0.2l-4.7,2.4c-0.4-0.4-1-0.6-1.6-0.6
		c-1.4,0-2.5,1.1-2.5,2.5c0,1.4,1.1,2.5,2.5,2.5c0.5,0,1.1-0.2,1.5-0.5l4.9,2.5c0,0,0,0.1,0,0.1c0,1.4,1.1,2.5,2.5,2.5
		s2.5-1.1,2.5-2.5s-1.1-2.5-2.5-2.5c-0.6,0-1.2,0.2-1.7,0.6l-4.7-2.4c0-0.1,0-0.2,0-0.4c0-0.1,0-0.1,0-0.2l4.7-2.4
		c0.4,0.4,1,0.6,1.6,0.6c1.4,0,2.5-1.1,2.5-2.5S13.6,1037.4,12.2,1037.4L12.2,1037.4z"/>
</g>
</svg>
